# xmcd
#
# Track frame offsets:
#	150
#	14315
#	27597
#	40417
#	51672
#	64512
#	80085
#	91172
#	108467
#	117032
#	129765
#	144202
#	153712
#	167612
#
# Disc length: 2427 seconds
#
# Revision: 0
# Processed by: cddbd v1.5.2PL0 Copyright (c) Steve Scherf et al.
# Submitted via: audiograbber 1.83.01
#
DISCID=b509790e
DTITLE=Costa Cordalis - Meisterstuecke
DYEAR=2011
DGENRE=06 30-00 0401
TTITLE0=Anita
TTITLE1=Carolina, Komm
TTITLE2=Hast Ja Tranen In Den Augen
TTITLE3=Der Vorhang Geht Auf
TTITLE4=Sag' Warum
TTITLE5=Ne Me Quitte Pas
TTITLE6=Spiel' Zigeuner
TTITLE7=Nathalie
TTITLE8=Stari Cigan
TTITLE9=Morgen Wird Alles Vorbei Sein
TTITLE10=Malagueña
TTITLE11=Es Dunkelt Schon In Der Heide
TTITLE12=Pan
TTITLE13=Nimm Das Nachste Schiff Nach Rhodos
EXTD=
EXTT0=
EXTT1=
EXTT2=
EXTT3=
EXTT4=
EXTT5=
EXTT6=
EXTT7=
EXTT8=
EXTT9=
EXTT10=
EXTT11=
EXTT12=
EXTT13=
PLAYORDER=
